<svg width="1019" height="674" xmlns="http://www.w3.org/2000/svg"><g><path d="M-31,-36L-59,37L90,53Z" fill="#006fa8" stroke="#006fa8"/><path d="M-31,-36L90,53L58,-64Z" fill="#006ea7" stroke="#006ea7"/><path d="M58,-64L90,53L133,51Z" fill="#0072ad" stroke="#0072ad"/><path d="M58,-64L133,51L153,-78Z" fill="#0070a9" stroke="#0070a9"/><path d="M153,-78L133,51L214,-45Z" fill="#0071ab" stroke="#0071ab"/><path d="M153,-78L214,-45L419,-77Z" fill="#0072ab" stroke="#0072ab"/><path d="M214,-45L133,51L256,15Z" fill="#0075af" stroke="#0075af"/><path d="M214,-45L256,15L377,-14Z" fill="#0077b1" stroke="#0077b1"/><path d="M214,-45L377,-14L419,-77Z" fill="#0177af" stroke="#0177af"/><path d="M377,-14L256,15L345,42Z" fill="#017ab5" stroke="#017ab5"/><path d="M377,-14L345,42L464,79Z" fill="#017eb9" stroke="#017eb9"/><path d="M377,-14L464,79L523,22Z" fill="#017fb9" stroke="#017fb9"/><path d="M377,-14L523,22L525,-21Z" fill="#027db6" stroke="#027db6"/><path d="M377,-14L525,-21L419,-77Z" fill="#017ab2" stroke="#017ab2"/><path d="M419,-77L525,-21L670,-63Z" fill="#037cb2" stroke="#037cb2"/><path d="M419,-77L670,-63L852,-71Z" fill="#037bb0" stroke="#037bb0"/><path d="M419,-77L852,-71L966,-73Z" fill="#1383b4" stroke="#1383b4"/><path d="M525,-21L523,22L618,17Z" fill="#0381b8" stroke="#0381b8"/><path d="M525,-21L618,17L670,-63Z" fill="#037eb5" stroke="#037eb5"/><path d="M670,-63L618,17L769,16Z" fill="#0a82b8" stroke="#0a82b8"/><path d="M670,-63L769,16L743,-52Z" fill="#1184b8" stroke="#1184b8"/><path d="M670,-63L743,-52L852,-71Z" fill="#1484b5" stroke="#1484b5"/><path d="M743,-52L769,16L852,-71Z" fill="#1686b8" stroke="#1686b8"/><path d="M852,-71L769,16L821,43Z" fill="#1789bc" stroke="#1789bc"/><path d="M852,-71L821,43L964,28Z" fill="#0c88bc" stroke="#0c88bc"/><path d="M852,-71L964,28L966,-73Z" fill="#0084b8" stroke="#0084b8"/><path d="M966,-73L964,28L1086,-46Z" fill="#0081b8" stroke="#0081b8"/><path d="M966,-73L1086,-46L1156,-40Z" fill="#007db6" stroke="#007db6"/><path d="M1086,-46L964,28L1036,75Z" fill="#0083bd" stroke="#0083bd"/><path d="M1086,-46L1036,75L1143,46Z" fill="#0082bd" stroke="#0082bd"/><path d="M1086,-46L1143,46L1156,-40Z" fill="#007eb9" stroke="#007eb9"/><path d="M1156,-40L1143,46L1161,187Z" fill="#0082c1" stroke="#0082c1"/><path d="M1156,-40L1161,187L1176,476Z" fill="#0689c8" stroke="#0689c8"/><path d="M-59,37L-84,280L-20,165Z" fill="#0075ae" stroke="#0075ae"/><path d="M-59,37L-20,165L39,136Z" fill="#0073ad" stroke="#0073ad"/><path d="M-59,37L39,136L90,53Z" fill="#0073ae" stroke="#0073ae"/><path d="M90,53L39,136L157,126Z" fill="#0077b3" stroke="#0077b3"/><path d="M90,53L157,126L133,51Z" fill="#0076b3" stroke="#0076b3"/><path d="M133,51L157,126L256,15Z" fill="#0077b4" stroke="#0077b4"/><path d="M256,15L157,126L252,184Z" fill="#007bb8" stroke="#007bb8"/><path d="M256,15L252,184L345,42Z" fill="#007cb9" stroke="#007cb9"/><path d="M345,42L252,184L365,175Z" fill="#0080bd" stroke="#0080bd"/><path d="M345,42L365,175L464,79Z" fill="#0180bd" stroke="#0180bd"/><path d="M464,79L365,175L463,152Z" fill="#0183bf" stroke="#0183bf"/><path d="M464,79L463,152L555,164Z" fill="#0284c0" stroke="#0284c0"/><path d="M464,79L555,164L523,22Z" fill="#0284be" stroke="#0284be"/><path d="M523,22L555,164L618,17Z" fill="#0384be" stroke="#0384be"/><path d="M618,17L555,164L671,170Z" fill="#0386c0" stroke="#0386c0"/><path d="M618,17L671,170L769,16Z" fill="#0a87bf" stroke="#0a87bf"/><path d="M769,16L671,170L714,181Z" fill="#0f8cc3" stroke="#0f8cc3"/><path d="M769,16L714,181L821,43Z" fill="#158dc3" stroke="#158dc3"/><path d="M821,43L714,181L866,150Z" fill="#168fc5" stroke="#168fc5"/><path d="M821,43L866,150L964,28Z" fill="#0b8cc2" stroke="#0b8cc2"/><path d="M964,28L866,150L984,122Z" fill="#008bc4" stroke="#008bc4"/><path d="M964,28L984,122L1036,75Z" fill="#0088c2" stroke="#0088c2"/><path d="M1036,75L984,122L1029,168Z" fill="#0089c4" stroke="#0089c4"/><path d="M1036,75L1029,168L1161,187Z" fill="#0088c5" stroke="#0088c5"/><path d="M1036,75L1161,187L1143,46Z" fill="#0085c3" stroke="#0085c3"/><path d="M-20,165L-84,280L13,229Z" fill="#0b79b3" stroke="#0b79b3"/><path d="M-20,165L13,229L39,136Z" fill="#0078b3" stroke="#0078b3"/><path d="M39,136L13,229L154,256Z" fill="#067cb8" stroke="#067cb8"/><path d="M39,136L154,256L157,126Z" fill="#007bb9" stroke="#007bb9"/><path d="M157,126L154,256L252,184Z" fill="#017ebb" stroke="#017ebb"/><path d="M252,184L154,256L280,278Z" fill="#0e82c0" stroke="#0e82c0"/><path d="M252,184L280,278L365,175Z" fill="#0784c1" stroke="#0784c1"/><path d="M365,175L280,278L380,284Z" fill="#1087c4" stroke="#1087c4"/><path d="M365,175L380,284L459,245Z" fill="#0e88c5" stroke="#0e88c5"/><path d="M365,175L459,245L463,152Z" fill="#0387c3" stroke="#0387c3"/><path d="M463,152L459,245L539,230Z" fill="#0889c4" stroke="#0889c4"/><path d="M463,152L539,230L555,164Z" fill="#0289c4" stroke="#0289c4"/><path d="M555,164L539,230L648,256Z" fill="#0c8cc6" stroke="#0c8cc6"/><path d="M555,164L648,256L671,170Z" fill="#078bc5" stroke="#078bc5"/><path d="M671,170L648,256L714,181Z" fill="#0d8dc7" stroke="#0d8dc7"/><path d="M714,181L648,256L779,242Z" fill="#1a92c9" stroke="#1a92c9"/><path d="M714,181L779,242L866,150Z" fill="#1794c9" stroke="#1794c9"/><path d="M866,150L779,242L833,287Z" fill="#2296cb" stroke="#2296cb"/><path d="M866,150L833,287L964,287Z" fill="#1995cc" stroke="#1995cc"/><path d="M866,150L964,287L984,122Z" fill="#0190c9" stroke="#0190c9"/><path d="M984,122L964,287L1029,168Z" fill="#028fc9" stroke="#028fc9"/><path d="M1029,168L964,287L1086,276Z" fill="#0f90cb" stroke="#0f90cb"/><path d="M1029,168L1086,276L1156,212Z" fill="#098cc9" stroke="#098cc9"/><path d="M1029,168L1156,212L1161,187Z" fill="#028ac8" stroke="#028ac8"/><path d="M1161,187L1156,212L1176,476Z" fill="#108dcb" stroke="#108dcb"/><path d="M-84,280L-69,763L-50,388Z" fill="#1384b7" stroke="#1384b7"/><path d="M-84,280L-50,388L56,312Z" fill="#107eb6" stroke="#107eb6"/><path d="M-84,280L56,312L13,229Z" fill="#107cb6" stroke="#107cb6"/><path d="M13,229L56,312L154,256Z" fill="#107fbb" stroke="#107fbb"/><path d="M154,256L56,312L142,379Z" fill="#1082be" stroke="#1082be"/><path d="M154,256L142,379L287,331Z" fill="#1085c0" stroke="#1085c0"/><path d="M154,256L287,331L280,278Z" fill="#1085c1" stroke="#1085c1"/><path d="M280,278L287,331L380,284Z" fill="#1088c4" stroke="#1088c4"/><path d="M380,284L287,331L385,372Z" fill="#108cc6" stroke="#108cc6"/><path d="M380,284L385,372L438,338Z" fill="#108dc7" stroke="#108dc7"/><path d="M380,284L438,338L459,245Z" fill="#118bc6" stroke="#118bc6"/><path d="M459,245L438,338L514,318Z" fill="#118dc7" stroke="#118dc7"/><path d="M459,245L514,318L539,230Z" fill="#128dc7" stroke="#128dc7"/><path d="M539,230L514,318L648,256Z" fill="#138fc8" stroke="#138fc8"/><path d="M648,256L514,318L677,350Z" fill="#1390c8" stroke="#1390c8"/><path d="M648,256L677,350L731,341Z" fill="#1993ca" stroke="#1993ca"/><path d="M648,256L731,341L779,242Z" fill="#1f95cb" stroke="#1f95cb"/><path d="M779,242L731,341L833,287Z" fill="#2598cc" stroke="#2598cc"/><path d="M833,287L731,341L866,313Z" fill="#269acd" stroke="#269acd"/><path d="M833,287L866,313L964,287Z" fill="#1a97cd" stroke="#1a97cd"/><path d="M964,287L866,313L965,385Z" fill="#1098cd" stroke="#1098cd"/><path d="M964,287L965,385L1015,359Z" fill="#1096cd" stroke="#1096cd"/><path d="M964,287L1015,359L1086,276Z" fill="#1093cc" stroke="#1093cc"/><path d="M1086,276L1015,359L1123,382Z" fill="#1093cd" stroke="#1093cd"/><path d="M1086,276L1123,382L1156,212Z" fill="#108ecb" stroke="#108ecb"/><path d="M1156,212L1123,382L1176,476Z" fill="#1091cd" stroke="#1091cd"/><path d="M-50,388L-69,763L-30,537Z" fill="#1488ba" stroke="#1488ba"/><path d="M-50,388L-30,537L-27,415Z" fill="#1181b7" stroke="#1181b7"/><path d="M-50,388L-27,415L56,312Z" fill="#1081b8" stroke="#1081b8"/><path d="M56,312L-27,415L76,428Z" fill="#1082bb" stroke="#1082bb"/><path d="M56,312L76,428L142,379Z" fill="#1085be" stroke="#1085be"/><path d="M142,379L76,428L177,436Z" fill="#1085bf" stroke="#1085bf"/><path d="M142,379L177,436L216,415Z" fill="#1086c1" stroke="#1086c1"/><path d="M142,379L216,415L287,331Z" fill="#1088c3" stroke="#1088c3"/><path d="M287,331L216,415L345,442Z" fill="#108bc5" stroke="#108bc5"/><path d="M287,331L345,442L385,372Z" fill="#108dc7" stroke="#108dc7"/><path d="M385,372L345,442L445,432Z" fill="#108ec7" stroke="#108ec7"/><path d="M385,372L445,432L438,338Z" fill="#118fc8" stroke="#118fc8"/><path d="M438,338L445,432L514,318Z" fill="#1190c9" stroke="#1190c9"/><path d="M514,318L445,432L580,439Z" fill="#1292ca" stroke="#1292ca"/><path d="M514,318L580,439L677,350Z" fill="#1393cb" stroke="#1393cb"/><path d="M677,350L580,439L640,451Z" fill="#1392ca" stroke="#1392ca"/><path d="M677,350L640,451L740,420Z" fill="#1996cb" stroke="#1996cb"/><path d="M677,350L740,420L731,341Z" fill="#1e99cd" stroke="#1e99cd"/><path d="M731,341L740,420L866,313Z" fill="#259cce" stroke="#259cce"/><path d="M866,313L740,420L869,448Z" fill="#279dcf" stroke="#279dcf"/><path d="M866,313L869,448L942,417Z" fill="#189bcf" stroke="#189bcf"/><path d="M866,313L942,417L965,385Z" fill="#109acf" stroke="#109acf"/><path d="M965,385L942,417L1041,446Z" fill="#1097ce" stroke="#1097ce"/><path d="M965,385L1041,446L1015,359Z" fill="#1096ce" stroke="#1096ce"/><path d="M1015,359L1041,446L1123,382Z" fill="#1094ce" stroke="#1094ce"/><path d="M1123,382L1041,446L1176,476Z" fill="#1093ce" stroke="#1093ce"/><path d="M-27,415L-30,537L76,428Z" fill="#1285bb" stroke="#1285bb"/><path d="M76,428L-30,537L24,575Z" fill="#158bbe" stroke="#158bbe"/><path d="M76,428L24,575L157,558Z" fill="#168dc2" stroke="#168dc2"/><path d="M76,428L157,558L177,436Z" fill="#138bc2" stroke="#138bc2"/><path d="M177,436L157,558L233,536Z" fill="#158fc5" stroke="#158fc5"/><path d="M177,436L233,536L216,415Z" fill="#128bc4" stroke="#128bc4"/><path d="M216,415L233,536L345,442Z" fill="#128fc7" stroke="#128fc7"/><path d="M345,442L233,536L381,523Z" fill="#1495ca" stroke="#1495ca"/><path d="M345,442L381,523L445,432Z" fill="#1393ca" stroke="#1393ca"/><path d="M445,432L381,523L475,578Z" fill="#1698cc" stroke="#1698cc"/><path d="M445,432L475,578L515,569Z" fill="#1899cd" stroke="#1899cd"/><path d="M445,432L515,569L580,439Z" fill="#1598cd" stroke="#1598cd"/><path d="M580,439L515,569L657,564Z" fill="#199ccf" stroke="#199ccf"/><path d="M580,439L657,564L640,451Z" fill="#1699cd" stroke="#1699cd"/><path d="M640,451L657,564L726,524Z" fill="#1d9dcf" stroke="#1d9dcf"/><path d="M640,451L726,524L740,420Z" fill="#1e9ccf" stroke="#1e9ccf"/><path d="M740,420L726,524L869,448Z" fill="#27a0d1" stroke="#27a0d1"/><path d="M869,448L726,524L813,572Z" fill="#2ca5d3" stroke="#2ca5d3"/><path d="M869,448L813,572L885,611Z" fill="#2aa5d4" stroke="#2aa5d4"/><path d="M869,448L885,611L972,577Z" fill="#1ca4d3" stroke="#1ca4d3"/><path d="M869,448L972,577L942,417Z" fill="#13a0d2" stroke="#13a0d2"/><path d="M942,417L972,577L1041,446Z" fill="#139ed1" stroke="#139ed1"/><path d="M1041,446L972,577L1035,564Z" fill="#179fd2" stroke="#179fd2"/><path d="M1041,446L1035,564L1176,476Z" fill="#149bd1" stroke="#149bd1"/><path d="M1176,476L1035,564L1177,554Z" fill="#179bd2" stroke="#179bd2"/><path d="M-30,537L-69,763L-27,630Z" fill="#0084ba" stroke="#0084ba"/><path d="M-30,537L-27,630L24,575Z" fill="#0d89bd" stroke="#0d89bd"/><path d="M24,575L-27,630L36,664Z" fill="#0087bd" stroke="#0087bd"/><path d="M24,575L36,664L157,558Z" fill="#068bc1" stroke="#068bc1"/><path d="M157,558L36,664L163,683Z" fill="#008ac3" stroke="#008ac3"/><path d="M157,558L163,683L268,675Z" fill="#008cc6" stroke="#008cc6"/><path d="M157,558L268,675L233,536Z" fill="#0990c7" stroke="#0990c7"/><path d="M233,536L268,675L380,651Z" fill="#0091ca" stroke="#0091ca"/><path d="M233,536L380,651L381,523Z" fill="#1195cb" stroke="#1195cb"/><path d="M381,523L380,651L475,578Z" fill="#0c97cc" stroke="#0c97cc"/><path d="M475,578L380,651L436,677Z" fill="#0194cc" stroke="#0194cc"/><path d="M475,578L436,677L527,632Z" fill="#0296cd" stroke="#0296cd"/><path d="M475,578L527,632L515,569Z" fill="#0a99ce" stroke="#0a99ce"/><path d="M515,569L527,632L657,564Z" fill="#0d9bcf" stroke="#0d9bcf"/><path d="M657,564L527,632L667,630Z" fill="#0599ce" stroke="#0599ce"/><path d="M657,564L667,630L726,524Z" fill="#199ed0" stroke="#199ed0"/><path d="M726,524L667,630L813,572Z" fill="#21a3d3" stroke="#21a3d3"/><path d="M813,572L667,630L775,677Z" fill="#14a0d2" stroke="#14a0d2"/><path d="M813,572L775,677L885,611Z" fill="#17a3d3" stroke="#17a3d3"/><path d="M972,577L885,611L912,650Z" fill="#01a0d3" stroke="#01a0d3"/><path d="M972,577L912,650L1062,616Z" fill="#009ed2" stroke="#009ed2"/><path d="M972,577L1062,616L1035,564Z" fill="#0b9ed2" stroke="#0b9ed2"/><path d="M1035,564L1062,616L1177,554Z" fill="#0e9cd2" stroke="#0e9cd2"/><path d="M1177,554L1062,616L1154,656Z" fill="#0298d2" stroke="#0298d2"/><path d="M-27,630L-69,763L36,664Z" fill="#0082bb" stroke="#0082bb"/><path d="M36,664L-69,763L29,766Z" fill="#0080bc" stroke="#0080bc"/><path d="M36,664L29,766L163,683Z" fill="#0085c1" stroke="#0085c1"/><path d="M163,683L29,766L173,778Z" fill="#0084c2" stroke="#0084c2"/><path d="M163,683L173,778L268,675Z" fill="#0088c5" stroke="#0088c5"/><path d="M268,675L173,778L283,789Z" fill="#0088c7" stroke="#0088c7"/><path d="M268,675L283,789L348,775Z" fill="#008ac9" stroke="#008ac9"/><path d="M268,675L348,775L380,651Z" fill="#018eca" stroke="#018eca"/><path d="M380,651L348,775L436,677Z" fill="#0190cb" stroke="#0190cb"/><path d="M436,677L348,775L481,711Z" fill="#018fcb" stroke="#018fcb"/><path d="M436,677L481,711L527,632Z" fill="#0293cd" stroke="#0293cd"/><path d="M527,632L481,711L526,745Z" fill="#0293cd" stroke="#0293cd"/><path d="M527,632L526,745L667,630Z" fill="#0397ce" stroke="#0397ce"/><path d="M667,630L526,745L677,775Z" fill="#0393cd" stroke="#0393cd"/><path d="M667,630L677,775L775,677Z" fill="#0d9ad0" stroke="#0d9ad0"/><path d="M775,677L677,775L774,750Z" fill="#139ad1" stroke="#139ad1"/><path d="M775,677L774,750L871,758Z" fill="#169cd2" stroke="#169cd2"/><path d="M775,677L871,758L912,650Z" fill="#139ed3" stroke="#139ed3"/><path d="M775,677L912,650L885,611Z" fill="#12a0d3" stroke="#12a0d3"/><path d="M912,650L871,758L921,766Z" fill="#079ad2" stroke="#079ad2"/><path d="M912,650L921,766L1081,768Z" fill="#0098d2" stroke="#0098d2"/><path d="M912,650L1081,768L1062,616Z" fill="#0099d2" stroke="#0099d2"/><path d="M1062,616L1081,768L1133,738Z" fill="#0094d1" stroke="#0094d1"/><path d="M1062,616L1133,738L1154,656Z" fill="#0095d1" stroke="#0095d1"/><path d="M-69,763L283,789L173,778Z" fill="#0082c2" stroke="#0082c2"/><path d="M-69,763L173,778L29,766Z" fill="#0080be" stroke="#0080be"/><path d="M283,789L1081,768L677,775Z" fill="#0992ce" stroke="#0992ce"/><path d="M283,789L677,775L348,775Z" fill="#018ccb" stroke="#018ccb"/><path d="M348,775L677,775L526,745Z" fill="#0290cd" stroke="#0290cd"/><path d="M348,775L526,745L481,711Z" fill="#018fcc" stroke="#018fcc"/><path d="M677,775L1081,768L921,766Z" fill="#0998d1" stroke="#0998d1"/><path d="M677,775L921,766L871,758Z" fill="#179ad2" stroke="#179ad2"/><path d="M677,775L871,758L774,750Z" fill="#1599d2" stroke="#1599d2"/></g></svg>